<?xml version="1.0" standalone="no"?>
<!DOCTYPE svg PUBLIC "-//W3C//DTD SVG 20010904//EN"
 "http://www.w3.org/TR/2001/REC-SVG-20010904/DTD/svg10.dtd">
<svg version="1.0" xmlns="http://www.w3.org/2000/svg"
 width="320.000000pt" height="205.000000pt" viewBox="0 0 320.000000 205.000000"
 preserveAspectRatio="xMidYMid meet">

<g transform="translate(0.000000,205.000000) scale(0.100000,-0.100000)"
fill="#20c997" stroke="none">
<path d="M2337 1967 c-12 -12 -346 -410 -741 -885 l-720 -863 -346 346 c-246
246 -352 345 -368 345 -28 0 -62 -34 -62 -62 0 -27 732 -765 768 -774 12 -4
31 0 42 7 11 8 360 421 775 919 506 607 755 912 755 928 0 28 -33 62 -60 62
-12 0 -31 -10 -43 -23z"/>
<path d="M3002 1973 c-11 -10 -240 -281 -508 -603 -268 -322 -593 -712 -723
-867 l-236 -283 -85 85 c-70 69 -91 85 -116 85 -38 0 -54 -16 -54 -55 0 -26
18 -49 118 -148 123 -121 143 -132 180 -99 11 9 145 168 299 352 153 184 483
580 733 879 250 300 463 556 472 570 23 34 23 56 -2 81 -25 25 -51 25 -78 3z"/>
</g>
</svg>