<svg xmlns="http://www.w3.org/2000/svg" xmlns:xlink="http://www.w3.org/1999/xlink" width="27.36" height="27.36" viewBox="0 0 27.36 27.36">
  <defs>
    <clipPath id="clip-path">
      <path id="path18" d="M0-47.5H27.36v27.36H0Z" transform="translate(0 47.5)"/>
    </clipPath>
  </defs>
  <g id="g10" transform="translate(0 47.5)">
    <g id="g12" transform="translate(0 -47.5)">
      <g id="g14" clip-path="url(#clip-path)">
        <g id="g20" transform="translate(1.494 4.525)">
          <path id="path22" d="M-.345-9.017a1.341,1.341,0,0,1-.074-1.934,1.341,1.341,0,0,1,1.934-.073L6.174-6.708c-.073-.069.324-.633.265-.688l-6.467-5.99A1.339,1.339,0,0,1-.1-15.318a1.34,1.34,0,0,1,1.934-.074L7.914-9.758c-.014-.013.438-.526.43-.534L1.292-16.824a1.34,1.34,0,0,1-.074-1.933,1.341,1.341,0,0,1,1.934-.073L10.2-12.3c.009.007.492-.478.506-.464l-6.591-6.1A1.34,1.34,0,0,1,4.044-20.8a1.341,1.341,0,0,1,1.934-.073l6.969,6.455c2.064,1.912,2.529,1.41,2.529,1.41l-1.863-1.726L11.46-16.728a1.34,1.34,0,0,1-.073-1.934,1.34,1.34,0,0,1,1.933-.074l5.52,5.113a8.208,8.208,0,0,1,.444,11.6,8.21,8.21,0,0,1-11.6.444,4.406,4.406,0,0,1-.477-.492l-.024.027Z" transform="translate(0.814 21.267)" fill="#c1694f"/>
        </g>
        <g id="g24" transform="translate(3.583 3.121)">
          <path id="path26" d="M-.345-9.018a1.34,1.34,0,0,1-.074-1.933,1.339,1.339,0,0,1,1.933-.075l4.66,4.317c-.074-.069.324-.633.265-.688l-6.467-5.99A1.34,1.34,0,0,1-.1-15.319a1.34,1.34,0,0,1,1.933-.074L7.913-9.759c-.014-.014.439-.526.431-.534L1.292-16.825a1.339,1.339,0,0,1-.074-1.932,1.34,1.34,0,0,1,1.933-.074L10.2-12.3c.009.009.492-.477.506-.464l-6.59-6.1A1.339,1.339,0,0,1,4.044-20.8a1.34,1.34,0,0,1,1.933-.074l6.97,6.456c2.063,1.911,2.529,1.409,2.529,1.409l-1.864-1.726L11.46-16.73a1.34,1.34,0,0,1-.074-1.933,1.341,1.341,0,0,1,1.934-.074l5.52,5.113a8.208,8.208,0,0,1,.444,11.6,8.209,8.209,0,0,1-11.6.444,4.368,4.368,0,0,1-.477-.491l-.024.027Z" transform="translate(0.814 21.268)" fill="#d99e82"/>
        </g>
        <g id="g28" transform="translate(17.67 1.154)">
          <path id="path30" d="M-.53-3.1a.717.717,0,0,1-.439-.15.719.719,0,0,1-.13-1.01L1.046-7.039a.719.719,0,0,1,1.01-.13.72.72,0,0,1,.13,1.009L.041-3.383a.717.717,0,0,1-.57.28" transform="translate(1.249 7.319)" fill="#ffac33"/>
        </g>
        <g id="g32" transform="translate(13.68 0.72)">
          <path id="path34" d="M-.53-3.71a.72.72,0,0,1-.72-.72v-3.6a.72.72,0,0,1,.72-.72.72.72,0,0,1,.72.72v3.6a.72.72,0,0,1-.72.72" transform="translate(1.25 8.75)" fill="#ffac33"/>
        </g>
        <g id="g36" transform="translate(20.46 5.04)">
          <path id="path38" d="M-.53-1.944a.719.719,0,0,1-.676-.474.719.719,0,0,1,.43-.922l3.3-1.2a.719.719,0,0,1,.922.431.72.72,0,0,1-.43.923l-3.3,1.2a.723.723,0,0,1-.246.044" transform="translate(1.25 4.584)" fill="#ffac33"/>
        </g>
      </g>
    </g>
  </g>
</svg>
