<svg xmlns="http://www.w3.org/2000/svg" width="87.069" height="96.23" viewBox="0 0 87.069 96.23">
  <path id="Path_13297" data-name="Path 13297" d="M52.166,45.828A6.809,6.809,0,0,1,59.04,52.7V80.2a2.292,2.292,0,0,0,2.291,2.291H108.3c3.037,0,5.728,2.872,5.728,6.874v9.255a43.53,43.53,0,0,1-65.293,37.609h-.009a43.545,43.545,0,0,1-21.74-36.768s-.012-.123-.027-.233v-.7c0-4,2.691-6.874,5.728-6.874H43a2.292,2.292,0,0,0,2.291-2.291V52.7a6.809,6.809,0,0,1,6.874-6.874Z" transform="translate(-26.962 -45.828)" fill="#ebc436"/>
</svg>
