<svg xmlns="http://www.w3.org/2000/svg" width="25.087" height="21" viewBox="0 0 25.087 21">
  <g id="Group_1257" data-name="Group 1257" transform="translate(-0.5 -3.1)">
    <path id="Path_1336" data-name="Path 1336" d="M27.1,4.2c.078.235.078,10.5.078,10.5a3.144,3.144,0,0,1-3.134,3.134h0A1.655,1.655,0,0,0,22.4,19.48v2.194l2.351,1.881V20.185H26.4a3.144,3.144,0,0,0,3.134-3.134V7.256A3.112,3.112,0,0,0,27.1,4.2Z" transform="translate(-4.739 -0.238)" fill="#ffe1da"/>
    <path id="Path_1337" data-name="Path 1337" d="M24.791,8.35a.843.843,0,0,0-.784.784v7.679a2.357,2.357,0,0,1-2.351,2.351H20.011a.8.8,0,0,0-.784.784v1.724l-2.9-2.351a1.114,1.114,0,0,0-.47-.157H4.34a.784.784,0,1,0,0,1.567H15.623l3.918,3.213a1.114,1.114,0,0,0,.47.157c.157,0,.235,0,.313-.078a.9.9,0,0,0,.47-.705V20.731h.862a3.88,3.88,0,0,0,3.918-3.918V9.134A.843.843,0,0,0,24.791,8.35ZM2.067,16.813V7.018A2.357,2.357,0,0,1,4.418,4.667H21.657a2.386,2.386,0,0,1,2.351,2.194.748.748,0,0,0,.862.705.678.678,0,0,0,.705-.784A3.923,3.923,0,0,0,21.735,3.1H4.418A3.88,3.88,0,0,0,.5,7.018v9.795a3.977,3.977,0,0,0,1.175,2.821.711.711,0,0,0,.549.235.711.711,0,0,0,.549-.235.757.757,0,0,0,0-1.1A2.431,2.431,0,0,1,2.067,16.813Z" fill="#2e3238"/>
    <path id="Path_1338" data-name="Path 1338" d="M7.9,13.432A1.332,1.332,0,1,0,9.232,12.1,1.275,1.275,0,0,0,7.9,13.432Zm5.407,0A1.332,1.332,0,1,0,14.639,12.1,1.321,1.321,0,0,0,13.307,13.432Zm5.407,0A1.332,1.332,0,1,0,20.046,12.1,1.321,1.321,0,0,0,18.713,13.432Z" transform="translate(-1.601 -1.948)" fill="#2e3238"/>
  </g>
</svg>
