<svg xmlns="http://www.w3.org/2000/svg" width="20" height="11.057" viewBox="0 0 20 11.057">
  <g id="graduation_cap-pen-pencil-education" data-name="graduation cap-pen-pencil-education" transform="translate(-4 -4.04)">
    <path id="Path_1316" data-name="Path 1316" d="M20.429,17.621a.44.44,0,0,1-.071-.007L14,16.3v4.536c0,1.014,2.639,2.143,6.429,2.143s6.429-1.129,6.429-2.143V16.3L20.5,17.614A.44.44,0,0,1,20.429,17.621Z" transform="translate(-6.429 -7.881)" fill="#fff"/>
    <path id="Path_1317" data-name="Path 1317" d="M14,4.04,4,6.8v.154L14,9.019l8.571-1.775V6.883h.714V7.1L24,6.951V6.8Z" fill="#fff"/>
    <path id="Path_1319" data-name="Path 1319" d="M56.071,16.832V15h-.714v1.832a1.306,1.306,0,0,1,.357-.046A1.324,1.324,0,0,1,56.071,16.832Zm-.357.311a.716.716,0,0,0-.714.714v1.429h1.429V17.857A.72.72,0,0,0,55.714,17.143Z" transform="translate(-32.786 -7.046)" fill="#fff"/>
  </g>
</svg>
