<svg id="Group_1530" data-name="Group 1530" xmlns="http://www.w3.org/2000/svg" width="54.776" height="54.776" viewBox="0 0 54.776 54.776">
  <path id="Path_13298" data-name="Path 13298" d="M47.929,0H6.847A6.854,6.854,0,0,0,0,6.847V47.929a6.854,6.854,0,0,0,6.847,6.847H47.929a6.854,6.854,0,0,0,6.847-6.847V6.847A6.854,6.854,0,0,0,47.929,0Z" fill="#1976d2"/>
  <path id="Path_13299" data-name="Path 13299" d="M31.676,20.118H23.118V13.271c0-1.89,1.534-1.712,3.424-1.712h3.424V3H23.118A10.271,10.271,0,0,0,12.847,13.271v6.847H6v8.559h6.847V47.506H23.118V28.676h5.135Z" transform="translate(14.541 7.271)" fill="#fafafa" fill-rule="evenodd"/>
</svg>
