<svg xmlns="http://www.w3.org/2000/svg" width="56" height="56" viewBox="0 0 56 56">
  <g id="Group_1531" data-name="Group 1531" transform="translate(0.857 0.5)">
    <rect id="Rectangle_630" data-name="Rectangle 630" width="55" height="55" rx="7" transform="translate(-0.357)" fill="#f0f0f0" stroke="#eaeaea" stroke-width="1"/>
    <path id="Path_13301" data-name="Path 13301" d="M273.542,240.238c4.836-4.514,6.986-12.037,5.7-19.238H260v7.953h10.962a9.051,9.051,0,0,1-4.084,6.126Z" transform="translate(-232.057 -197.248)" fill="#4285f4"/>
    <path id="Path_13302" data-name="Path 13302" d="M90,297.266a20.635,20.635,0,0,0,31.812,6.341l-6.663-5.159A12.317,12.317,0,0,1,96.771,292Z" transform="translate(-80.327 -260.618)" fill="#34a853"/>
    <path id="Path_13303" data-name="Path 13303" d="M78.955,183.112a12.254,12.254,0,0,1,0-7.846L72.184,170a20.766,20.766,0,0,0,0,18.378Z" transform="translate(-62.512 -151.729)" fill="#fbbc02"/>
    <path id="Path_13304" data-name="Path 13304" d="M96.771,81.7c2.364-7.416,12.467-11.715,19.238-5.374l5.911-5.8A20.293,20.293,0,0,0,90,76.438Z" transform="translate(-80.327 -58.167)" fill="#ea4335"/>
  </g>
</svg>
