<svg xmlns="http://www.w3.org/2000/svg" width="18.84" height="15.585" viewBox="0 0 18.84 15.585">
  <g id="like_active" transform="translate(-460.149 -1269)">
    <path id="Path_1261" data-name="Path 1261" d="M486.078,1597.235c-.1-.024-4.923,0-4.923,0l.673-1.636a2.774,2.774,0,0,0-1.126-3.473,2.442,2.442,0,0,0-1.478-.188,1.013,1.013,0,0,0-.649.436,2.118,2.118,0,0,0-.206.8,3.38,3.38,0,0,1-1.084,1.849c-.993.859-4.077,3.343-4.077,3.343v9.113h10.654a1.73,1.73,0,0,0,1.67-2.543,1293.936,1293.936,0,0,0,1.278-4.556A1.683,1.683,0,0,0,486.078,1597.235Z" transform="translate(-8.685 -322.892)" fill="#5832e0"/>
    <path id="Path_1262" data-name="Path 1262" d="M468.73,1597.07h2.937a.283.283,0,0,1,.225.129.485.485,0,0,1,.093.3v8.978H468.73a.51.51,0,0,1-.411-.233.9.9,0,0,1-.17-.549v-7.846a1.025,1.025,0,0,1,.044-.3.991.991,0,0,1,.126-.257.554.554,0,0,1,.188-.164A.386.386,0,0,1,468.73,1597.07Z" transform="translate(-8 -321.895)" fill="#5832e0"/>
  </g>
</svg>
