<svg id="Layer_1" data-name="Layer 1" xmlns="http://www.w3.org/2000/svg" viewBox="0 0 276.75 78.52"><defs><style>.cls-1{fill:#512e92;}</style></defs><path d="M25.11,20.78c12.87,0,20.51,10.67,20.51,22.29v.62a.79.79,0,0,1-.88.82H6.89c.69,10.62,8.24,17.68,18.47,17.68,7.23,0,12.92-3.47,15.22-8.63a1.06,1.06,0,0,1,1-.62h1.5c.64,0,1,.34.76.84C41.16,60.53,34.16,65,25.34,65c-12.7,0-21.5-9.31-21.5-22.12,0-12.47,8.52-22.12,21.27-22.12ZM6.87,41.68H42.63c-.74-11.18-8.19-18.07-17.52-18.07C14.75,23.61,7.39,31.07,6.87,41.68Z" transform="translate(-3.84 -3.02)"/><path d="M94.38,52.64C91.59,60.07,84,65,74.92,65A21.71,21.71,0,0,1,52.72,42.9a21.71,21.71,0,0,1,22.2-22.12c9.09,0,16.64,4.95,19.46,12.38.24.59-.08,1-.68,1H92.33a1,1,0,0,1-1-.65c-2.56-5.95-8.81-9.87-16.41-9.87A18.89,18.89,0,0,0,55.72,42.9a18.89,18.89,0,0,0,19.2,19.29c7.57,0,13.82-3.95,16.4-9.88a1,1,0,0,1,1-.64H93.7C94.3,51.67,94.62,52.05,94.38,52.64Z" transform="translate(-3.84 -3.02)"/><path d="M101.57,63.27V3.87a.77.77,0,0,1,.84-.85h1.3a.77.77,0,0,1,.85.85v59.4a.77.77,0,0,1-.85.84h-1.3A.77.77,0,0,1,101.57,63.27Z" transform="translate(-3.84 -3.02)"/><path d="M111.67,12.36V5.57a.77.77,0,0,1,.85-.85h1.3a.78.78,0,0,1,.85.85v6.79a.78.78,0,0,1-.85.84h-1.3A.77.77,0,0,1,111.67,12.36Zm0,50.91V22.54a.77.77,0,0,1,.85-.85h1.3a.78.78,0,0,1,.85.85V63.27a.78.78,0,0,1-.85.84h-1.3A.77.77,0,0,1,111.67,63.27Z" transform="translate(-3.84 -3.02)"/><path d="M144.11,21.24a22.12,22.12,0,0,1,0,44.23,20.82,20.82,0,0,1-19.34-12.31V80.69a.78.78,0,0,1-.85.85h-1.3a.78.78,0,0,1-.85-.85V23a.77.77,0,0,1,.85-.85h1.3a.77.77,0,0,1,.85.85V33.55a20.8,20.8,0,0,1,19.34-12.31Zm19.07,22.11a19.21,19.21,0,1,0-38.41,0,19.21,19.21,0,1,0,38.41,0Z" transform="translate(-3.84 -3.02)"/><path d="M188.66,23v1.13a.77.77,0,0,1-.85.85h-8.88V63.72a.78.78,0,0,1-.85.85h-1.3a.78.78,0,0,1-.85-.85V25H167a.77.77,0,0,1-.85-.85V23a.77.77,0,0,1,.85-.85h8.91V9.41a.78.78,0,0,1,.85-.85h1.3a.78.78,0,0,1,.85.85V22.14h8.88A.77.77,0,0,1,188.66,23Z" transform="translate(-3.84 -3.02)"/><path d="M199,43.35a16.8,16.8,0,1,1,16.8,16.74A16.6,16.6,0,0,1,199,43.35Zm31.33,0A14.53,14.53,0,1,0,215.76,58,14.4,14.4,0,0,0,230.29,43.35Z" transform="translate(-3.84 -3.02)"/><path d="M266.45,21.24c7.89,0,14.14,5.26,14.14,15V63.72a.77.77,0,0,1-.85.85h-1.3a.77.77,0,0,1-.85-.85V36.26c0-7.78-4.72-12.2-11.48-12.2-7.47,0-14.48,5.38-14.48,16.58V63.72a.78.78,0,0,1-.85.85h-1.3a.78.78,0,0,1-.85-.85V23a.77.77,0,0,1,.85-.85h1.3a.78.78,0,0,1,.85.85v7.62c3-6.81,9-9.37,14.82-9.37Z" transform="translate(-3.84 -3.02)"/><path d="M234,60.91l.87,1.14a27.49,27.49,0,0,0,5.75-29l-1.17.91a26,26,0,0,1-5.45,27Z" transform="translate(-3.84 -3.02)"/><path d="M221.05,68.14a26.34,26.34,0,0,1-9,.4,25.62,25.62,0,1,1,6.58-50.82,26.25,26.25,0,0,1,11.84,4.61l1.16-.9a27.63,27.63,0,0,0-12.82-5.11,26.81,26.81,0,0,0-30.38,23.33,26.82,26.82,0,0,0,23.44,30.29A27.75,27.75,0,0,0,222,69.38Z" transform="translate(-3.84 -3.02)"/><circle class="cls-1" cx="211.92" cy="13.37" r="5.35"/></svg>