<?xml version="1.0" encoding="utf-8"?>
<!-- Generator: Adobe Illustrator 21.0.0, SVG Export Plug-In . SVG Version: 6.00 Build 0)  -->
<svg version="1.1" id="Layer_1" xmlns="http://www.w3.org/2000/svg" xmlns:xlink="http://www.w3.org/1999/xlink" x="0px" y="0px"
	 viewBox="0 0 540 340" style="enable-background:new 0 0 540 340;" xml:space="preserve">
<style type="text/css">
	.st0{fill:#EFEFEF;}
	.st1{fill:#01509F;}
	.st2{fill:#F8130E;}
	.st3{fill:#808080;}
</style>
<g>
	<path class="st0" d="M88.6,265v70.8H66.5v-35.3l-10.9,35.3h-19l-10.9-35.3v35.3H3.5V265h27.2l15.6,42.5L61.5,265H88.6z"/>
	<path class="st0" d="M141,325.1h-23.6l-3.5,10.7H90.6l25.9-70.8h25.6l25.8,70.8h-23.4L141,325.1z M135.6,308.4l-6.4-19.7l-6.4,19.7
		H135.6z"/>
	<path class="st0" d="M216.4,267.7c4.8,2.3,8.8,5.5,11.8,9.8c3,4.2,5,9.1,6,14.7h-23.4c-1.1-2.3-2.6-4.1-4.5-5.4c-2-1.3-4.2-2-6.8-2
		c-3.7,0-6.7,1.4-8.9,4.2c-2.2,2.8-3.3,6.6-3.3,11.3c0,4.7,1.1,8.5,3.3,11.3c2.2,2.8,5.1,4.2,8.9,4.2c2.5,0,4.8-0.6,6.8-2
		c2-1.3,3.5-3.1,4.5-5.4h23.4c-1,5.6-3,10.5-6,14.7c-3,4.2-7,7.5-11.8,9.8c-4.8,2.3-10.3,3.5-16.5,3.5c-7.1,0-13.3-1.5-18.6-4.5
		c-5.3-3-9.3-7.3-12.1-12.8c-2.8-5.5-4.3-11.7-4.3-18.7s1.4-13.2,4.3-18.7c2.8-5.5,6.9-9.7,12.1-12.8c5.3-3,11.5-4.5,18.6-4.5
		C206.1,264.3,211.6,265.4,216.4,267.7z"/>
	<path class="st0" d="M277.9,335.8l-13.4-25.4v25.4h-22.2V265h33c5.7,0,10.6,1,14.7,3c4.1,2,7.1,4.8,9.1,8.3s3.1,7.5,3.1,11.9
		c0,4.7-1.3,8.9-3.9,12.6c-2.6,3.7-6.4,6.3-11.4,7.9l15.4,27.1H277.9z M264.5,295.6h8.8c2.1,0,3.7-0.5,4.8-1.4
		c1.1-1,1.6-2.5,1.6-4.6c0-1.9-0.5-3.3-1.6-4.4c-1.1-1.1-2.7-1.6-4.8-1.6h-8.8V295.6z"/>
	<path class="st0" d="M359.2,268.4c5.5,3.1,9.9,7.4,13.2,13c3.2,5.5,4.8,11.8,4.8,18.7c0,6.9-1.6,13.2-4.8,18.7
		c-3.2,5.5-7.6,9.9-13.2,13c-5.6,3.1-11.7,4.7-18.3,4.7c-6.7,0-12.8-1.6-18.3-4.7c-5.6-3.1-10-7.5-13.3-13
		c-3.3-5.5-4.9-11.8-4.9-18.7c0-6.9,1.6-13.2,4.9-18.7c3.3-5.5,7.7-9.9,13.3-13c5.6-3.1,11.7-4.6,18.3-4.6
		C347.5,263.8,353.6,265.3,359.2,268.4z M330.6,288.5c-2.4,2.8-3.6,6.7-3.6,11.5c0,4.8,1.2,8.6,3.6,11.5c2.4,2.8,5.8,4.3,10.3,4.3
		c4.4,0,7.8-1.4,10.2-4.3c2.4-2.8,3.6-6.6,3.6-11.5c0-4.9-1.2-8.7-3.6-11.5c-2.4-2.8-5.8-4.3-10.2-4.3
		C336.4,284.3,333,285.7,330.6,288.5z"/>
	<path class="st0" d="M467.7,265v70.8h-22.2v-27.6h-21.1v27.6h-22.2V265h22.2v25.5h21.1V265H467.7z"/>
	<path class="st0" d="M513.3,335.8l-13.4-25.4v25.4h-22.2V265h33c5.7,0,10.6,1,14.7,3c4.1,2,7.1,4.8,9.1,8.3c2,3.5,3.1,7.5,3.1,11.9
		c0,4.7-1.3,8.9-4,12.6c-2.6,3.7-6.4,6.3-11.4,7.9l15.4,27.1H513.3z M499.9,295.6h8.8c2.1,0,3.7-0.5,4.8-1.4c1.1-1,1.6-2.5,1.6-4.6
		c0-1.9-0.6-3.3-1.7-4.4c-1.1-1.1-2.7-1.6-4.8-1.6h-8.8V295.6z"/>
</g>
<polygon class="st1" points="165.9,6.7 165.9,230.7 236.9,223.7 236.9,42.1 "/>
<polygon class="st2" points="259.9,53.3 259.9,221.5 318.9,215.8 318.9,82.5 "/>
<polygon class="st2" points="391.9,118.7 340.9,93.6 340.9,213.6 391.9,208.7 "/>
<polygon class="st3" points="236.9,92.1 236.9,223.7 259.9,171.5 259.9,53.3 "/>
<polygon class="st3" points="318.9,132.5 318.9,215.8 340.9,163.6 340.9,93.6 "/>
</svg>
