<svg xmlns="http://www.w3.org/2000/svg" width="12.505" height="12.5" viewBox="0 0 12.505 12.5">
  <path id="Marketplace_activities" d="M10.094,8.875a1.244,1.244,0,0,0,1.094-.644l2.237-4.056a.623.623,0,0,0-.544-.925H3.631L3.044,2H1V3.25H2.25L4.5,7.994,3.656,9.519A1.252,1.252,0,0,0,4.75,11.375h7.5v-1.25H4.75l.688-1.25ZM4.225,4.5h7.594L10.094,7.625H5.706ZM4.75,12A1.25,1.25,0,1,0,6,13.25,1.248,1.248,0,0,0,4.75,12ZM11,12a1.25,1.25,0,1,0,1.25,1.25A1.248,1.248,0,0,0,11,12Z" transform="translate(-1 -2)" />
</svg>
