<svg xmlns="http://www.w3.org/2000/svg" width="13.158" height="11.279" viewBox="0 0 13.158 11.279">
  <g id="news_feed" transform="translate(-32 -64)">
    <path id="Path_1153" data-name="Path 1153" d="M44.688,64H36.7a.484.484,0,0,0-.47.485v.925h-3A1.237,1.237,0,0,0,32,66.643v6.095a2.546,2.546,0,0,0,2.526,2.541h8.215a2.423,2.423,0,0,0,2.417-2.408v-8.4A.471.471,0,0,0,44.688,64Zm-8.459,2.35v5.639H35V66.914a1.434,1.434,0,0,0-.1-.564Zm-.5,7.5a1.735,1.735,0,0,1-1.19.488,1.6,1.6,0,0,1-1.6-1.6V66.914a.558.558,0,1,1,1.116,0v5.545a.471.471,0,0,0,.47.47h1.689A1.545,1.545,0,0,1,35.73,73.851Zm8.488-.981a1.484,1.484,0,0,1-1.477,1.469h-6.18a2.455,2.455,0,0,0,.608-1.6V64.969h7.049Z" />
    <path id="Path_1154" data-name="Path 1154" d="M240.235,136h4.7v1.645h-4.7Zm0,2.585h4.7v.94h-4.7Zm0,1.88h4.7v.94h-4.7Zm4.7,1.88h-4.7s0,.94-.235.94h4.368C244.934,143.284,244.934,142.667,244.934,142.344Z" transform="translate(-201.891 -69.885)" />
  </g>
</svg>
