<svg xmlns="http://www.w3.org/2000/svg" width="46" height="46" viewBox="0 0 46 46">
  <g id="Group_1236" data-name="Group 1236" transform="translate(-1453 -24)">
    <circle id="Ellipse_171" data-name="Ellipse 171" cx="23" cy="23" r="23" transform="translate(1453 24)" fill="#e8e8e8"/>
    <path id="Path_1268" data-name="Path 1268" d="M16,3a3,3,0,0,0-3,3v.512A9,9,0,0,0,7,15v7.5H5.5a1.5,1.5,0,0,0,0,3h21a1.5,1.5,0,0,0,0-3H25V15a9,9,0,0,0-6-8.488V6A3,3,0,0,0,16,3Zm0,27a3,3,0,0,1-3-3h6A3,3,0,0,1,16,30Z" transform="translate(1460 31)" fill="#5832e0"/>
    <g id="Ellipse_172" data-name="Ellipse 172" transform="translate(1480 35)" fill="red" stroke="red" stroke-width="1">
      <circle cx="5.5" cy="5.5" r="5.5" stroke="none"/>
      <circle cx="5.5" cy="5.5" r="5" fill="none"/>
    </g>
  </g>
</svg>
