<svg id="notifications_active" xmlns="http://www.w3.org/2000/svg" width="30" height="30" viewBox="0 0 30 30">
  <path id="Path_3" data-name="Path 3" d="M0,0H30V30H0Z" fill="none"/>
  <path id="Path_4" data-name="Path 4" d="M14.987,2A13,13,0,1,0,28,15,12.994,12.994,0,0,0,14.987,2ZM24,9.8H20.161a20.344,20.344,0,0,0-1.794-4.628A10.439,10.439,0,0,1,24,9.8ZM15,4.652A18.313,18.313,0,0,1,17.483,9.8H12.517A18.313,18.313,0,0,1,15,4.652ZM4.938,17.6a10.169,10.169,0,0,1,0-5.2H9.332A21.47,21.47,0,0,0,9.15,15a21.47,21.47,0,0,0,.182,2.6ZM6,20.2H9.839a20.344,20.344,0,0,0,1.794,4.628A10.383,10.383,0,0,1,6,20.2ZM9.839,9.8H6a10.383,10.383,0,0,1,5.629-4.628A20.344,20.344,0,0,0,9.839,9.8ZM15,25.348A18.313,18.313,0,0,1,12.517,20.2h4.966A18.313,18.313,0,0,1,15,25.348ZM18.042,17.6H11.958A19.127,19.127,0,0,1,11.75,15a18.961,18.961,0,0,1,.208-2.6h6.084A18.96,18.96,0,0,1,18.25,15,19.126,19.126,0,0,1,18.042,17.6Zm.325,7.228A20.344,20.344,0,0,0,20.161,20.2H24A10.439,10.439,0,0,1,18.367,24.828Zm2.3-7.228A21.469,21.469,0,0,0,20.85,15a21.469,21.469,0,0,0-.182-2.6h4.394a10.169,10.169,0,0,1,0,5.2Z" transform="translate(0 0)" fill="#5832e0"/>
</svg>
