<svg xmlns="http://www.w3.org/2000/svg" width="16.311" height="13.377" viewBox="0 0 16.311 13.377">
  <g id="photo" transform="translate(-1279.447 -298.208)">
    <path id="Path_1254" data-name="Path 1254" d="M380.2,227.219l-.587-.8a1.032,1.032,0,0,0-.832-.42h-3.3a1.029,1.029,0,0,0-.831.42l-.587.8a1.028,1.028,0,0,1-.831.42h-2.722a1.032,1.032,0,0,0-1.032,1.032v8.674a1.03,1.03,0,0,0,1.032,1.031h13.248a1.03,1.03,0,0,0,1.031-1.031v-8.674a1.032,1.032,0,0,0-1.031-1.032h-2.723a1.031,1.031,0,0,1-.831-.42Z" transform="translate(910.473 72.708)" fill="none" stroke="#a8abd8" stroke-linecap="round" stroke-linejoin="round" stroke-width="1"/>
    <path id="Path_1255" data-name="Path 1255" d="M378.346,236.6a2.678,2.678,0,1,0-2.679-2.678A2.678,2.678,0,0,0,378.346,236.6Z" transform="translate(909.257 71.678)" fill="none" stroke="#a8abd8" stroke-linecap="round" stroke-linejoin="round" stroke-width="1"/>
  </g>
</svg>
