<?xml version="1.0" standalone="no"?>
<!DOCTYPE svg PUBLIC "-//W3C//DTD SVG 20010904//EN"
 "http://www.w3.org/TR/2001/REC-SVG-20010904/DTD/svg10.dtd">
<svg version="1.0" xmlns="http://www.w3.org/2000/svg"
 width="260.000000pt" height="260.000000pt" viewBox="0 0 260.000000 260.000000"
 preserveAspectRatio="xMidYMid meet">
<metadata>
Created by potrace 1.16, written by Peter Selinger 2001-2019
</metadata>
<g transform="translate(0.000000,260.000000) scale(0.100000,-0.100000)"
fill="#000000" stroke="none">
<path d="M1180 2380 c-340 -40 -639 -235 -818 -534 -166 -276 -192 -644 -69
-951 106 -265 337 -496 602 -602 256 -103 554 -103 810 0 265 106 496 337 602
602 103 256 103 554 0 810 -106 265 -337 496 -602 602 -157 63 -363 91 -525
73z m323 -450 c118 -37 199 -135 214 -261 l6 -50 -104 3 -104 3 -6 37 c-12 78
-65 118 -156 118 -62 0 -106 -27 -134 -82 -19 -36 -23 -64 -27 -165 l-4 -123
136 0 136 0 0 -85 0 -85 -134 0 -134 0 -4 -127 c-3 -97 -8 -136 -21 -160 l-18
-33 297 0 c266 0 296 -2 290 -16 -3 -9 -6 -45 -6 -80 l0 -64 -435 0 -435 0 0
80 0 80 40 0 c76 0 100 53 100 217 l0 102 -67 3 -68 3 0 80 0 80 62 3 61 3 4
152 c3 136 6 157 27 197 44 86 116 144 216 176 63 20 193 17 268 -6z"/>
</g>
</svg>
