
<?xml version="1.0" standalone="no"?>
<!DOCTYPE svg PUBLIC "-//W3C//DTD SVG 20010904//EN"
 "http://www.w3.org/TR/2001/REC-SVG-20010904/DTD/svg10.dtd">
<svg version="1.0" xmlns="http://www.w3.org/2000/svg"
 width="128.000000pt" height="128.000000pt" viewBox="0 0 128.000000 128.000000"
 preserveAspectRatio="xMidYMid meet">

<g transform="translate(0.000000,128.000000) scale(0.100000,-0.100000)"
fill="#000000" stroke="none">
<path d="M479 1183 c0 -25 -9 -32 -78 -65 -153 -74 -267 -229 -293 -400 -34
-226 86 -454 295 -558 44 -22 84 -37 89 -34 6 4 -14 17 -45 29 -285 116 -408
446 -270 724 39 80 152 190 233 229 l65 31 3 -24 c2 -14 8 -25 13 -25 14 0 89
51 89 61 0 8 -81 59 -93 59 -4 0 -7 -12 -8 -27z m79 -37 c-2 -1 -15 -10 -30
-19 l-28 -17 0 40 0 41 31 -21 c16 -12 29 -23 27 -24z"/>
<path d="M786 1153 c-4 -4 18 -17 48 -29 284 -115 407 -445 269 -723 -39 -80
-152 -190 -233 -229 l-65 -31 -3 24 c-2 14 -8 25 -13 25 -14 0 -89 -51 -89
-60 0 -8 83 -60 94 -60 3 0 6 12 7 28 0 24 9 31 78 64 153 74 266 227 293 401
38 246 -112 494 -354 586 -14 5 -29 7 -32 4z m-10 -1050 c-3 -3 -17 2 -32 12
l-26 17 28 17 29 18 3 -30 c2 -16 1 -31 -2 -34z"/>
<path d="M517 983 c-4 -3 -7 -24 -7 -45 l0 -38 -115 0 -115 0 0 -260 0 -260
368 2 367 3 0 255 0 255 -117 3 -118 3 0 44 0 45 -128 0 c-71 0 -132 -3 -135
-7z m243 -43 l0 -40 -115 0 -115 0 0 40 0 40 115 0 115 0 0 -40z m240 -150 l0
-89 -37 -10 c-21 -6 -100 -28 -176 -50 l-139 -39 -141 39 c-78 22 -159 44
-179 50 l-38 10 0 89 0 90 355 0 355 0 0 -90z m-531 -155 c89 -25 170 -45 179
-45 9 0 89 20 177 45 88 25 163 45 168 45 4 0 6 -64 5 -142 l-3 -143 -350 0
-350 0 -3 143 c-1 78 1 142 6 142 4 0 81 -20 171 -45z"/>
<path d="M618 683 c18 -2 45 -2 60 0 15 2 0 4 -33 4 -33 0 -45 -2 -27 -4z"/>
</g>
</svg>
