<svg xmlns="http://www.w3.org/2000/svg" width="24.087" height="31.101" viewBox="0 0 24.087 31.101">
  <path id="Path_1339" data-name="Path 1339" d="M14.054,0V2.009h1V0ZM6.677.943l-.709.711L7.386,3.073,8.1,2.363Zm14.695,0L19.953,2.363l.709.709,1.419-1.419ZM17.443,4.007a3.573,3.573,0,0,1,2.551,1.084,3.693,3.693,0,0,1,0,5.193l-2.906,2.947-.024.024V11.542a2.514,2.514,0,0,0-2.508-2.508v0a2.442,2.442,0,0,0-2.508,2.508V13.3l-.065-.067L9.075,10.284a3.693,3.693,0,0,1,0-5.193,3.559,3.559,0,0,1,5.1,0,.5.5,0,0,0,.713,0A3.573,3.573,0,0,1,17.443,4.007ZM6.018,4.981l-2,.037.018,1,2.007-.037Zm19.07.025-2.007.012.006,1,2.007-.012ZM4.523,9.533v1H6.53v-1Zm18.059,0v1h2.007v-1Zm-8.026.5a1.491,1.491,0,0,1,1.5,1.5v6.02a.5.5,0,0,0,.5.5H26.846a1.387,1.387,0,0,1,1.254,1.5v2.026a9.53,9.53,0,0,1-14.295,8.234h0a9.534,9.534,0,0,1-4.76-8.05s0-.027-.006-.051v-.153a1.387,1.387,0,0,1,1.254-1.5h2.257a.5.5,0,0,0,.5-.5V11.54a1.491,1.491,0,0,1,1.5-1.5ZM8.6,13.713,7.182,15.132l.711.709,1.419-1.419Zm10.844,0-.709.709,1.419,1.419.709-.709Z" transform="translate(-4.014 -0.002)"/>
</svg>
