<svg xmlns="http://www.w3.org/2000/svg" width="16.017" height="13.009" viewBox="0 0 16.017 13.009">
  <path id="twitter" d="M14.37,6.623c.01.142.01.285.01.427a9.276,9.276,0,0,1-9.34,9.34A9.276,9.276,0,0,1,0,14.916a6.791,6.791,0,0,0,.793.041,6.574,6.574,0,0,0,4.075-1.4A3.288,3.288,0,0,1,1.8,11.277a4.139,4.139,0,0,0,.62.051,3.472,3.472,0,0,0,.864-.112A3.283,3.283,0,0,1,.65,7.995V7.954a3.306,3.306,0,0,0,1.484.417A3.288,3.288,0,0,1,1.118,3.98,9.331,9.331,0,0,0,7.886,7.415a3.706,3.706,0,0,1-.081-.752,3.286,3.286,0,0,1,5.681-2.246,6.463,6.463,0,0,0,2.083-.793,3.274,3.274,0,0,1-1.443,1.809,6.581,6.581,0,0,0,1.89-.508,7.056,7.056,0,0,1-1.646,1.7Z" transform="translate(0 -3.381)" fill="#1da1f2"/>
</svg>
