<svg xmlns="http://www.w3.org/2000/svg" width="13.675" height="13.675" viewBox="0 0 13.675 13.675">
  <g id="video" transform="translate(-1309.825 -298.208)">
    <g id="Group_1188" data-name="Group 1188">
      <path id="Path_1256" data-name="Path 1256" d="M413.613,232.573l-3.857-2.226a.524.524,0,0,0-.526,0,.522.522,0,0,0-.263.455v4.454a.52.52,0,0,0,.069.263.523.523,0,0,0,.457.264.521.521,0,0,0,.263-.072l3.857-2.226a.524.524,0,0,0,.193-.719.52.52,0,0,0-.193-.192Z" transform="translate(905.604 72.016)" fill="none" stroke="#a8abd8" stroke-linecap="round" stroke-linejoin="round" stroke-width="1"/>
      <path id="Path_1257" data-name="Path 1257" d="M414.782,225.816h-9.521a1.577,1.577,0,0,0-1.578,1.577v9.521a1.578,1.578,0,0,0,1.578,1.578h9.521a1.577,1.577,0,0,0,1.577-1.578v-9.521A1.576,1.576,0,0,0,414.782,225.816Z" transform="translate(906.641 72.892)" fill="none" stroke="#a8abd8" stroke-linecap="round" stroke-linejoin="round" stroke-width="1"/>
    </g>
  </g>
</svg>
