<svg xmlns="http://www.w3.org/2000/svg" width="20.595" height="16.259" viewBox="0 0 20.595 16.259">
  <path id="Path_1265" data-name="Path 1265" d="M23.053,10.42h-.542V7.71A2.71,2.71,0,0,0,19.8,5H5.71A2.71,2.71,0,0,0,3,7.71v10.84a2.71,2.71,0,0,0,2.71,2.71H19.8a2.71,2.71,0,0,0,2.71-2.71V15.84h.542A.542.542,0,0,0,23.6,15.3V10.962A.542.542,0,0,0,23.053,10.42Zm-3.794,2.916a.39.39,0,0,1-.119.173.52.52,0,0,1-.759,0,.488.488,0,0,1-.206-.379.509.509,0,0,1,.163-.379.542.542,0,0,1,.759,0,.509.509,0,0,1,.163.379A.444.444,0,0,1,19.259,13.336Zm2.168,5.214A1.626,1.626,0,0,1,19.8,20.175H5.71a1.626,1.626,0,0,1-1.626-1.626V7.71A1.626,1.626,0,0,1,5.71,6.084H19.8A1.626,1.626,0,0,1,21.427,7.71v2.71h-2.71a2.71,2.71,0,1,0,0,5.42h2.71Z" transform="translate(-3 -5)" fill="#fff"/>
</svg>
